<svg width="93" height="93" viewBox="0 0 93 93" fill="none" xmlns="http://www.w3.org/2000/svg">
<path d="M15.3309 22.1097H16.3309V23.1097H15.3309V22.1097Z" fill="#66110D"/>
<path d="M16.3309 23.1097H17.3309V24.1097H16.3309V23.1097Z" fill="#B24A47"/>
<path d="M17.3309 24.1097H18.3309V25.1097H17.3309V24.1097Z" fill="#B24A47"/>
<path d="M17.3309 25.1097H18.3309V26.1097H17.3309V25.1097Z" fill="#B24A47"/>
<path d="M17.3309 26.1097H18.3309V27.1097H17.3309V26.1097Z" fill="#B24A47"/>
<path d="M17.3309 27.1097H18.3309V28.1097H17.3309V27.1097Z" fill="#B24A47"/>
<path d="M18.3309 27.1097H19.3309V28.1097H18.3309V27.1097Z" fill="#B24A47"/>
<path d="M18.3309 28.1097H19.3309V29.1097H18.3309V28.1097Z" fill="#B24A47"/>
<path d="M19.3309 28.1097H20.3309V29.1097H19.3309V28.1097Z" fill="#B24A47"/>
<path d="M19.3309 29.1097H20.3309V30.1097H19.3309V29.1097Z" fill="#B24A47"/>
<path d="M20.3309 29.1097H21.3309V30.1097H20.3309V29.1097Z" fill="#B24A47"/>
<path d="M21.3309 29.1097H22.3309V30.1097H21.3309V29.1097Z" fill="#B24A47"/>
<path d="M21.3309 30.1097H22.3309V31.1097H21.3309V30.1097Z" fill="#B24A47"/>
<path d="M22.3309 30.1097H23.3309V31.1097H22.3309V30.1097Z" fill="#B24A47"/>
<path d="M22.3309 31.1097H23.3309V32.1097H22.3309V31.1097Z" fill="#B24A47"/>
<path d="M22.3309 32.1097H23.3309V33.1097H22.3309V32.1097Z" fill="#B24A47"/>
<path d="M22.3309 33.1097H23.3309V34.1097H22.3309V33.1097Z" fill="#B24A47"/>
<path d="M22.3309 34.1097H23.3309V35.1097H22.3309V34.1097Z" fill="#B24A47"/>
<path d="M23.3309 34.1097H24.3309V35.1097H23.3309V34.1097Z" fill="#B24A47"/>
<path d="M23.3309 33.1097H24.3309V34.1097H23.3309V33.1097Z" fill="#B24A47"/>
<path d="M24.3309 34.1097H25.3309V35.1097H24.3309V34.1097Z" fill="#B24A47"/>
<path d="M24.3309 33.1097H25.3309V34.1097H24.3309V33.1097Z" fill="#EECBAD"/>
<path d="M23.3309 32.1097H24.3309V33.1097H23.3309V32.1097Z" fill="#EECBAD"/>
<path d="M25.3309 34.1097H26.3309V35.1097H25.3309V34.1097Z" fill="#EECBAD"/>
<path d="M26.3309 35.1097H27.3309V36.1097H26.3309V35.1097Z" fill="#EECBAD"/>
<path d="M27.3309 36.1097H28.3309V37.1097H27.3309V36.1097Z" fill="#EECBAD"/>
<path d="M26.3309 33.1097H27.3309V34.1097H26.3309V33.1097Z" fill="#EECBAD"/>
<path d="M27.3309 34.1097H28.3309V35.1097H27.3309V34.1097Z" fill="#EECBAD"/>
<path d="M28.3309 35.1097H29.3309V36.1097H28.3309V35.1097Z" fill="#EECBAD"/>
<path d="M28.3309 36.1097H29.3309V37.1097H28.3309V36.1097Z" fill="#F8ECDC"/>
<path d="M29.3309 36.1097H30.3309V37.1097H29.3309V36.1097Z" fill="#F8ECDC"/>
<path d="M27.3309 35.1097H28.3309V36.1097H27.3309V35.1097Z" fill="#F8ECDC"/>
<path d="M26.3309 34.1097H27.3309V35.1097H26.3309V34.1097Z" fill="#F8ECDC"/>
<path d="M25.3309 33.1097H26.3309V34.1097H25.3309V33.1097Z" fill="#F8ECDC"/>
<path d="M25.3309 32.1097H26.3309V33.1097H25.3309V32.1097Z" fill="#F8ECDC"/>
<path d="M24.3309 32.1097H25.3309V33.1097H24.3309V32.1097Z" fill="#F8ECDC"/>
<path d="M23.3309 35.1097H24.3309V36.1097H23.3309V35.1097Z" fill="#B24A47"/>
<path d="M24.3309 36.1097H25.3309V37.1097H24.3309V36.1097Z" fill="#B24A47"/>
<path d="M25.3309 36.1097H26.3309V37.1097H25.3309V36.1097Z" fill="#B24A47"/>
<path d="M24.3309 35.1097H25.3309V36.1097H24.3309V35.1097Z" fill="#B24A47"/>
<path d="M25.3309 35.1097H26.3309V36.1097H25.3309V35.1097Z" fill="#B24A47"/>
<path d="M26.3309 36.1097H27.3309V37.1097H26.3309V36.1097Z" fill="#B24A47"/>
<path d="M26.3309 37.1097H27.3309V38.1097H26.3309V37.1097Z" fill="#B24A47"/>
<path d="M27.3309 37.1097H28.3309V38.1097H27.3309V37.1097Z" fill="#B24A47"/>
<path d="M27.3309 38.1097H28.3309V39.1097H27.3309V38.1097Z" fill="#B24A47"/>
<path d="M27.3309 39.1097H28.3309V40.1097H27.3309V39.1097Z" fill="#B24A47"/>
<path d="M28.3309 39.1097H29.3309V43.1097H28.3309V39.1097Z" fill="#B24A47"/>
<path d="M29.3309 42.1097H30.3309V44.1097H29.3309V42.1097Z" fill="#B24A47"/>
<path d="M30.3309 43.1097H31.3309V44.1097H30.3309V43.1097Z" fill="#B24A47"/>
<path d="M31.3309 42.1097H32.3309V43.1097H31.3309V42.1097Z" fill="#B24A47"/>
<path d="M32.3309 41.1097H33.3309V42.1097H32.3309V41.1097Z" fill="#B24A47"/>
<path d="M33.3309 41.1097H34.3309V42.1097H33.3309V41.1097Z" fill="#B24A47"/>
<path d="M33.3309 40.1097H34.3309V41.1097H33.3309V40.1097Z" fill="#B24A47"/>
<path d="M32.3309 40.1097H33.3309V41.1097H32.3309V40.1097Z" fill="#B24A47"/>
<path d="M31.3309 39.1097H32.3309V40.1097H31.3309V39.1097Z" fill="#B24A47"/>
<path d="M32.3309 39.1097H33.3309V40.1097H32.3309V39.1097Z" fill="#B24A47"/>
<path d="M32.3309 38.1097H33.3309V39.1097H32.3309V38.1097Z" fill="#B24A47"/>
<path d="M31.3309 38.1097H32.3309V39.1097H31.3309V38.1097Z" fill="#B24A47"/>
<path d="M30.3309 37.1097H31.3309V38.1097H30.3309V37.1097Z" fill="#B24A47"/>
<path d="M31.3309 37.1097H32.3309V38.1097H31.3309V37.1097Z" fill="#B24A47"/>
<path d="M31.3309 36.1097H32.3309V37.1097H31.3309V36.1097Z" fill="#B24A47"/>
<path d="M30.3309 36.1097H31.3309V37.1097H30.3309V36.1097Z" fill="#B24A47"/>
<path d="M29.3309 35.1097H30.3309V36.1097H29.3309V35.1097Z" fill="#B24A47"/>
<path d="M30.3309 35.1097H31.3309V36.1097H30.3309V35.1097Z" fill="#B24A47"/>
<path d="M29.3309 34.1097H30.3309V35.1097H29.3309V34.1097Z" fill="#B24A47"/>
<path d="M28.3309 34.1097H29.3309V35.1097H28.3309V34.1097Z" fill="#B24A47"/>
<path d="M27.3309 33.1097H28.3309V34.1097H27.3309V33.1097Z" fill="#B24A47"/>
<path d="M26.3309 32.1097H27.3309V33.1097H26.3309V32.1097Z" fill="#B24A47"/>
<path d="M26.3309 31.1097H27.3309V32.1097H26.3309V31.1097Z" fill="#B24A47"/>
<path d="M25.3309 30.1097H26.3309V31.1097H25.3309V30.1097Z" fill="#B24A47"/>
<path d="M26.3309 30.1097H27.3309V31.1097H26.3309V30.1097Z" fill="#B24A47"/>
<path d="M25.3309 29.1097H26.3309V30.1097H25.3309V29.1097Z" fill="#B24A47"/>
<path d="M24.3309 28.1097H25.3309V29.1097H24.3309V28.1097Z" fill="#B24A47"/>
<path d="M23.3309 27.1097H24.3309V28.1097H23.3309V27.1097Z" fill="#B24A47"/>
<path d="M22.3309 27.1097H23.3309V28.1097H22.3309V27.1097Z" fill="#B24A47"/>
<path d="M22.3309 26.1097H23.3309V27.1097H22.3309V26.1097Z" fill="#B24A47"/>
<path d="M21.3309 26.1097H22.3309V27.1097H21.3309V26.1097Z" fill="#B24A47"/>
<path d="M20.3309 25.1097H21.3309V26.1097H20.3309V25.1097Z" fill="#B24A47"/>
<path d="M21.3309 25.1097H22.3309V26.1097H21.3309V25.1097Z" fill="#B24A47"/>
<path d="M21.3309 24.1097H22.3309V25.1097H21.3309V24.1097Z" fill="#B24A47"/>
<path d="M20.3309 24.1097H21.3309V25.1097H20.3309V24.1097Z" fill="#B24A47"/>
<path d="M20.3309 23.1097H21.3309V24.1097H20.3309V23.1097Z" fill="#B24A47"/>
<path d="M21.3309 23.1097H22.3309V24.1097H21.3309V23.1097Z" fill="#B24A47"/>
<path d="M23.3309 25.1097H24.3309V26.1097H23.3309V25.1097Z" fill="#B24A47"/>
<path d="M24.3309 26.1097H25.3309V27.1097H24.3309V26.1097Z" fill="#B24A47"/>
<path d="M25.3309 27.1097H26.3309V28.1097H25.3309V27.1097Z" fill="#B24A47"/>
<path d="M26.3309 28.1097H27.3309V29.1097H26.3309V28.1097Z" fill="#B24A47"/>
<path d="M27.3309 29.1097H28.3309V30.1097H27.3309V29.1097Z" fill="#B24A47"/>
<path d="M28.3309 30.1097H29.3309V31.1097H28.3309V30.1097Z" fill="#B24A47"/>
<path d="M29.3309 32.1097H30.3309V33.1097H29.3309V32.1097Z" fill="#B24A47"/>
<path d="M31.3309 33.1097H32.3309V34.1097H31.3309V33.1097Z" fill="#B24A47"/>
<path d="M32.3309 33.1097H33.3309V34.1097H32.3309V33.1097Z" fill="#B24A47"/>
<path d="M33.3309 34.1097H34.3309V35.1097H33.3309V34.1097Z" fill="#B24A47"/>
<path d="M34.3309 35.1097H35.3309V36.1097H34.3309V35.1097Z" fill="#B24A47"/>
<path d="M34.3309 36.1097H35.3309V37.1097H34.3309V36.1097Z" fill="#B24A47"/>
<path d="M34.3309 37.1097H35.3309V38.1097H34.3309V37.1097Z" fill="#B24A47"/>
<path d="M35.3309 38.1097H36.3309V39.1097H35.3309V38.1097Z" fill="#B24A47"/>
<path d="M36.3309 39.1097H37.3309V40.1097H36.3309V39.1097Z" fill="#B24A47"/>
<path d="M36.3309 40.1097H37.3309V41.1097H36.3309V40.1097Z" fill="#B24A47"/>
<path d="M37.3309 41.1097H38.3309V42.1097H37.3309V41.1097Z" fill="#B24A47"/>
<path d="M22.3309 23.1097H23.3309V26.1097H22.3309V23.1097Z" fill="#F3A282"/>
<path d="M23.3309 26.1097H24.3309V27.1097H23.3309V26.1097Z" fill="#F3A282"/>
<path d="M24.3309 27.1097H25.3309V28.1097H24.3309V27.1097Z" fill="#F3A282"/>
<path d="M25.3309 28.1097H26.3309V29.1097H25.3309V28.1097Z" fill="#F3A282"/>
<path d="M26.3309 29.1097H27.3309V30.1097H26.3309V29.1097Z" fill="#F3A282"/>
<path d="M27.3309 30.1097H28.3309V33.1097H27.3309V30.1097Z" fill="#F3A282"/>
<path d="M28.3309 31.1097H29.3309V34.1097H28.3309V31.1097Z" fill="#F3A282"/>
<path d="M29.3309 33.1097H31.3309V34.1097H29.3309V33.1097Z" fill="#F3A282"/>
<path d="M30.3309 34.1097H33.3309V35.1097H30.3309V34.1097Z" fill="#F3A282"/>
<path d="M31.3309 35.1097H34.3309V36.1097H31.3309V35.1097Z" fill="#F3A282"/>
<path d="M32.3309 36.1097H34.3309V37.1097H32.3309V36.1097Z" fill="#F3A282"/>
<path d="M32.3309 37.1097H34.3309V38.1097H32.3309V37.1097Z" fill="#F3A282"/>
<path d="M33.3309 38.1097H35.3309V39.1097H33.3309V38.1097Z" fill="#F3A282"/>
<path d="M33.3309 39.1097H36.3309V40.1097H33.3309V39.1097Z" fill="#F3A282"/>
<path d="M34.3309 40.1097H36.3309V41.1097H34.3309V40.1097Z" fill="#F3A282"/>
<path d="M34.3309 41.1097H37.3309V42.1097H34.3309V41.1097Z" fill="#F3A282"/>
<path d="M35.3309 42.1097H36.3309V43.1097H35.3309V42.1097Z" fill="#F3A282"/>
<path d="M30.3309 42.1097H31.3309V43.1097H30.3309V42.1097Z" fill="#EECBAD"/>
<path d="M29.3309 41.1097H32.3309V42.1097H29.3309V41.1097Z" fill="#EECBAD"/>
<path d="M29.3309 40.1097H32.3309V41.1097H29.3309V40.1097Z" fill="#EECBAD"/>
<path d="M29.3309 39.1097H31.3309V40.1097H29.3309V39.1097Z" fill="#EECBAD"/>
<path d="M28.3309 38.1097H31.3309V39.1097H28.3309V38.1097Z" fill="#EECBAD"/>
<path d="M28.3309 37.1097H30.3309V38.1097H28.3309V37.1097Z" fill="#EECBAD"/>
<path d="M23.3309 31.1097H26.3309V32.1097H23.3309V31.1097Z" fill="#EECBAD"/>
<path d="M23.3309 30.1097H25.3309V31.1097H23.3309V30.1097Z" fill="#EECBAD"/>
<path d="M22.3309 29.1097H25.3309V30.1097H22.3309V29.1097Z" fill="#EECBAD"/>
<path d="M20.3309 28.1097H24.3309V29.1097H20.3309V28.1097Z" fill="#EECBAD"/>
<path d="M19.3309 27.1097H22.3309V28.1097H19.3309V27.1097Z" fill="#EECBAD"/>
<path d="M18.3309 26.1097H21.3309V27.1097H18.3309V26.1097Z" fill="#EECBAD"/>
<path d="M18.3309 25.1097H20.3309V26.1097H18.3309V25.1097Z" fill="#EECBAD"/>
<path d="M18.3309 24.1097H20.3309V25.1097H18.3309V24.1097Z" fill="#EECBAD"/>
<path d="M17.3309 23.1097H20.3309V24.1097H17.3309V23.1097Z" fill="#EECBAD"/>
<path d="M17.3309 22.1097H20.3309V23.1097H17.3309V22.1097Z" fill="#EECBAD"/>
<path d="M15.3309 23.1097H16.3309V24.1097H15.3309V23.1097Z" fill="#66110D"/>
<path d="M16.3309 24.1097H17.3309V25.1097H16.3309V24.1097Z" fill="#66110D"/>
<path d="M16.3309 25.1097H17.3309V26.1097H16.3309V25.1097Z" fill="#66110D"/>
<path d="M16.3309 26.1097H17.3309V27.1097H16.3309V26.1097Z" fill="#66110D"/>
<path d="M16.3309 27.1097H17.3309V28.1097H16.3309V27.1097Z" fill="#66110D"/>
<path d="M17.3309 28.1097H18.3309V29.1097H17.3309V28.1097Z" fill="#66110D"/>
<path d="M18.3309 29.1097H19.3309V30.1097H18.3309V29.1097Z" fill="#66110D"/>
<path d="M19.3309 30.1097H20.3309V31.1097H19.3309V30.1097Z" fill="#66110D"/>
<path d="M20.3309 30.1097H21.3309V31.1097H20.3309V30.1097Z" fill="#66110D"/>
<path d="M21.3309 31.1097H22.3309V32.1097H21.3309V31.1097Z" fill="#66110D"/>
<path d="M21.3309 32.1097H22.3309V33.1097H21.3309V32.1097Z" fill="#66110D"/>
<path d="M21.3309 33.1097H22.3309V34.1097H21.3309V33.1097Z" fill="#66110D"/>
<path d="M21.3309 34.1097H22.3309V35.1097H21.3309V34.1097Z" fill="#66110D"/>
<path d="M22.3309 35.1097H23.3309V36.1097H22.3309V35.1097Z" fill="#66110D"/>
<path d="M23.3309 36.1097H24.3309V37.1097H23.3309V36.1097Z" fill="#66110D"/>
<path d="M24.3309 37.1097H25.3309V38.1097H24.3309V37.1097Z" fill="#66110D"/>
<path d="M25.3309 37.1097H26.3309V38.1097H25.3309V37.1097Z" fill="#66110D"/>
<path d="M26.3309 38.1097H27.3309V39.1097H26.3309V38.1097Z" fill="#66110D"/>
<path d="M26.3309 39.1097H27.3309V40.1097H26.3309V39.1097Z" fill="#66110D"/>
<path d="M27.3309 40.1097H28.3309V41.1097H27.3309V40.1097Z" fill="#66110D"/>
<path d="M27.3309 41.1097H28.3309V42.1097H27.3309V41.1097Z" fill="#66110D"/>
<path d="M28.3309 42.1097H29.3309V43.1097H28.3309V42.1097Z" fill="#66110D"/>
<path d="M28.3309 43.1097H29.3309V44.1097H28.3309V43.1097Z" fill="#66110D"/>
<path d="M29.3309 44.1097H30.3309V45.1097H29.3309V44.1097Z" fill="#66110D"/>
<path d="M30.3309 44.1097H31.3309V45.1097H30.3309V44.1097Z" fill="#66110D"/>
<path d="M31.3309 43.1097H32.3309V44.1097H31.3309V43.1097Z" fill="#66110D"/>
<path d="M32.3309 42.1097H33.3309V43.1097H32.3309V42.1097Z" fill="#66110D"/>
<path d="M33.3309 42.1097H34.3309V43.1097H33.3309V42.1097Z" fill="#66110D"/>
<path d="M34.3309 42.1097H35.3309V43.1097H34.3309V42.1097Z" fill="#66110D"/>
<path d="M35.3309 43.1097H36.3309V44.1097H35.3309V43.1097Z" fill="#66110D"/>
<path d="M36.3309 42.1097H37.3309V43.1097H36.3309V42.1097Z" fill="#66110D"/>
<path d="M37.3309 42.1097H38.3309V43.1097H37.3309V42.1097Z" fill="#66110D"/>
<path d="M38.3309 42.1097H39.3309V43.1097H38.3309V42.1097Z" fill="#66110D"/>
<path d="M38.3309 41.1097H39.3309V42.1097H38.3309V41.1097Z" fill="#66110D"/>
<path d="M38.3309 40.1097H39.3309V41.1097H38.3309V40.1097Z" fill="#66110D"/>
<path d="M37.3309 40.1097H38.3309V41.1097H37.3309V40.1097Z" fill="#66110D"/>
<path d="M37.3309 39.1097H38.3309V40.1097H37.3309V39.1097Z" fill="#66110D"/>
<path d="M36.3309 38.1097H37.3309V39.1097H36.3309V38.1097Z" fill="#66110D"/>
<path d="M35.3309 37.1097H36.3309V38.1097H35.3309V37.1097Z" fill="#66110D"/>
<path d="M35.3309 36.1097H36.3309V37.1097H35.3309V36.1097Z" fill="#66110D"/>
<path d="M35.3309 35.1097H36.3309V36.1097H35.3309V35.1097Z" fill="#66110D"/>
<path d="M34.3309 34.1097H35.3309V35.1097H34.3309V34.1097Z" fill="#66110D"/>
<path d="M33.3309 33.1097H34.3309V34.1097H33.3309V33.1097Z" fill="#66110D"/>
<path d="M32.3309 32.1097H33.3309V33.1097H32.3309V32.1097Z" fill="#66110D"/>
<path d="M31.3309 32.1097H32.3309V33.1097H31.3309V32.1097Z" fill="#66110D"/>
<path d="M30.3309 32.1097H31.3309V33.1097H30.3309V32.1097Z" fill="#66110D"/>
<path d="M29.3309 31.1097H30.3309V32.1097H29.3309V31.1097Z" fill="#66110D"/>
<path d="M29.3309 30.1097H30.3309V31.1097H29.3309V30.1097Z" fill="#66110D"/>
<path d="M28.3309 29.1097H29.3309V30.1097H28.3309V29.1097Z" fill="#66110D"/>
<path d="M16.3309 22.1097H17.3309V23.1097H16.3309V22.1097Z" fill="#66110D"/>
<path d="M17.3309 21.1097H18.3309V22.1097H17.3309V21.1097Z" fill="#66110D"/>
<path d="M18.3309 21.1097H19.3309V22.1097H18.3309V21.1097Z" fill="#66110D"/>
<path d="M19.3309 21.1097H20.3309V22.1097H19.3309V21.1097Z" fill="#66110D"/>
<path d="M20.3309 22.1097H21.3309V23.1097H20.3309V22.1097Z" fill="#66110D"/>
<path d="M21.3309 22.1097H22.3309V23.1097H21.3309V22.1097Z" fill="#66110D"/>
<path d="M22.3309 22.1097H23.3309V23.1097H22.3309V22.1097Z" fill="#66110D"/>
<path d="M23.3309 22.1097H24.3309V23.1097H23.3309V22.1097Z" fill="#66110D"/>
<path d="M23.3309 23.1097H24.3309V24.1097H23.3309V23.1097Z" fill="#66110D"/>
<path d="M23.3309 24.1097H24.3309V25.1097H23.3309V24.1097Z" fill="#66110D"/>
<path d="M24.3309 25.1097H25.3309V26.1097H24.3309V25.1097Z" fill="#66110D"/>
<path d="M25.3309 26.1097H26.3309V27.1097H25.3309V26.1097Z" fill="#66110D"/>
<path d="M26.3309 27.1097H27.3309V28.1097H26.3309V27.1097Z" fill="#66110D"/>
<path d="M26.3309 27.1097H27.3309V28.1097H26.3309V27.1097Z" fill="#66110D"/>
<path d="M27.3309 28.1097H28.3309V29.1097H27.3309V28.1097Z" fill="#66110D"/>
<path d="M28.3309 28.1097H29.3309V29.1097H28.3309V28.1097Z" fill="#66110D"/>
<path d="M75.2476 20.1947L75.3327 21.1911L74.3363 21.2761L74.2513 20.2798L75.2476 20.1947Z" fill="#66110D"/>
<path d="M74.3363 21.2761L74.4213 22.2725L73.4249 22.3575L73.3399 21.3612L74.3363 21.2761Z" fill="#B24A47"/>
<path d="M73.4249 22.3575L73.5099 23.3539L72.5136 23.4389L72.4285 22.4426L73.4249 22.3575Z" fill="#B24A47"/>
<path d="M72.4285 22.4426L72.5136 23.4389L71.5172 23.524L71.4322 22.5276L72.4285 22.4426Z" fill="#B24A47"/>
<path d="M71.4322 22.5276L71.5172 23.524L70.5208 23.609L70.4358 22.6126L71.4322 22.5276Z" fill="#B24A47"/>
<path d="M70.4358 22.6126L70.5208 23.609L69.5244 23.694L69.4394 22.6976L70.4358 22.6126Z" fill="#B24A47"/>
<path d="M70.5208 23.609L70.6058 24.6054L69.6094 24.6904L69.5244 23.694L70.5208 23.609Z" fill="#B24A47"/>
<path d="M69.5244 23.694L69.6094 24.6904L68.6131 24.7754L68.528 23.779L69.5244 23.694Z" fill="#B24A47"/>
<path d="M69.6094 24.6904L69.6945 25.6868L68.6981 25.7718L68.6131 24.7754L69.6094 24.6904Z" fill="#B24A47"/>
<path d="M68.6131 24.7754L68.6981 25.7718L67.7017 25.8568L67.6167 24.8604L68.6131 24.7754Z" fill="#B24A47"/>
<path d="M68.6981 25.7718L68.7831 26.7682L67.7867 26.8532L67.7017 25.8568L68.6981 25.7718Z" fill="#B24A47"/>
<path d="M68.7831 26.7682L68.8681 27.7645L67.8717 27.8496L67.7867 26.8532L68.7831 26.7682Z" fill="#B24A47"/>
<path d="M67.7867 26.8532L67.8717 27.8496L66.8754 27.9346L66.7903 26.9382L67.7867 26.8532Z" fill="#B24A47"/>
<path d="M67.8717 27.8496L67.9568 28.8459L66.9604 28.931L66.8754 27.9346L67.8717 27.8496Z" fill="#B24A47"/>
<path d="M66.8754 27.9346L66.9604 28.931L65.964 29.016L65.879 28.0196L66.8754 27.9346Z" fill="#B24A47"/>
<path d="M65.879 28.0196L65.964 29.016L64.9676 29.101L64.8826 28.1046L65.879 28.0196Z" fill="#B24A47"/>
<path d="M64.8826 28.1046L64.9676 29.101L63.9712 29.186L63.8862 28.1896L64.8826 28.1046Z" fill="#B24A47"/>
<path d="M63.8862 28.1896L63.9712 29.186L62.9749 29.271L62.8899 28.2747L63.8862 28.1896Z" fill="#B24A47"/>
<path d="M63.9712 29.186L64.0563 30.1824L63.0599 30.2674L62.9749 29.271L63.9712 29.186Z" fill="#B24A47"/>
<path d="M64.9676 29.101L65.0526 30.0974L64.0563 30.1824L63.9712 29.186L64.9676 29.101Z" fill="#B24A47"/>
<path d="M64.0563 30.1824L64.1413 31.1788L63.1449 31.2638L63.0599 30.2674L64.0563 30.1824Z" fill="#B24A47"/>
<path d="M65.0526 30.0974L65.1377 31.0937L64.1413 31.1788L64.0563 30.1824L65.0526 30.0974Z" fill="#EECBAD"/>
<path d="M65.964 29.016L66.049 30.0124L65.0526 30.0974L64.9676 29.101L65.964 29.016Z" fill="#EECBAD"/>
<path d="M64.1413 31.1788L64.2263 32.1751L63.2299 32.2602L63.1449 31.2638L64.1413 31.1788Z" fill="#EECBAD"/>
<path d="M63.2299 32.2602L63.3149 33.2565L62.3186 33.3416L62.2336 32.3452L63.2299 32.2602Z" fill="#EECBAD"/>
<path d="M62.3186 33.3416L62.4036 34.3379L61.4072 34.423L61.3222 33.4266L62.3186 33.3416Z" fill="#EECBAD"/>
<path d="M65.2227 32.0901L65.3077 33.0865L64.3113 33.1715L64.2263 32.1751L65.2227 32.0901Z" fill="#EECBAD"/>
<path d="M64.3113 33.1715L64.3963 34.1679L63.4 34.2529L63.3149 33.2565L64.3113 33.1715Z" fill="#EECBAD"/>
<path d="M63.4 34.2529L63.485 35.2493L62.4886 35.3343L62.4036 34.3379L63.4 34.2529Z" fill="#EECBAD"/>
<path d="M62.4036 34.3379L62.4886 35.3343L61.4922 35.4193L61.4072 34.423L62.4036 34.3379Z" fill="#F8ECDC"/>
<path d="M62.4886 35.3343L62.5736 36.3307L61.5773 36.4157L61.4922 35.4193L62.4886 35.3343Z" fill="#F8ECDC"/>
<path d="M63.3149 33.2565L63.4 34.2529L62.4036 34.3379L62.3186 33.3416L63.3149 33.2565Z" fill="#F8ECDC"/>
<path d="M64.2263 32.1751L64.3113 33.1715L63.3149 33.2565L63.2299 32.2602L64.2263 32.1751Z" fill="#F8ECDC"/>
<path d="M65.1377 31.0937L65.2227 32.0901L64.2263 32.1751L64.1413 31.1788L65.1377 31.0937Z" fill="#F8ECDC"/>
<path d="M66.134 31.0087L66.2191 32.0051L65.2227 32.0901L65.1377 31.0937L66.134 31.0087Z" fill="#F8ECDC"/>
<path d="M66.049 30.0124L66.134 31.0087L65.1377 31.0937L65.0526 30.0974L66.049 30.0124Z" fill="#F8ECDC"/>
<path d="M62.9749 29.271L63.0599 30.2674L62.0635 30.3524L61.9785 29.3561L62.9749 29.271Z" fill="#B24A47"/>
<path d="M62.0635 30.3524L62.1485 31.3488L61.1521 31.4338L61.0671 30.4375L62.0635 30.3524Z" fill="#B24A47"/>
<path d="M62.1485 31.3488L62.2336 32.3452L61.2372 32.4302L61.1521 31.4338L62.1485 31.3488Z" fill="#B24A47"/>
<path d="M63.0599 30.2674L63.1449 31.2638L62.1485 31.3488L62.0635 30.3524L63.0599 30.2674Z" fill="#B24A47"/>
<path d="M63.1449 31.2638L63.2299 32.2602L62.2336 32.3452L62.1485 31.3488L63.1449 31.2638Z" fill="#B24A47"/>
<path d="M62.2336 32.3452L62.3186 33.3416L61.3222 33.4266L61.2372 32.4302L62.2336 32.3452Z" fill="#B24A47"/>
<path d="M61.2372 32.4302L61.3222 33.4266L60.3258 33.5116L60.2408 32.5152L61.2372 32.4302Z" fill="#B24A47"/>
<path d="M61.3222 33.4266L61.4072 34.423L60.4108 34.508L60.3258 33.5116L61.3222 33.4266Z" fill="#B24A47"/>
<path d="M60.3258 33.5116L60.4108 34.508L59.4145 34.593L59.3294 33.5966L60.3258 33.5116Z" fill="#B24A47"/>
<path d="M59.3294 33.5966L59.4145 34.593L58.4181 34.678L58.3331 33.6816L59.3294 33.5966Z" fill="#B24A47"/>
<path d="M59.4145 34.593L59.4995 35.5894L55.514 35.9295L55.4289 34.9331L59.4145 34.593Z" fill="#B24A47"/>
<path d="M56.5103 35.8444L56.5954 36.8408L54.6026 37.0109L54.5176 36.0145L56.5103 35.8444Z" fill="#B24A47"/>
<path d="M55.599 36.9258L55.684 37.9222L54.6876 38.0072L54.6026 37.0109L55.599 36.9258Z" fill="#B24A47"/>
<path d="M56.6804 37.8372L56.7654 38.8336L55.769 38.9186L55.684 37.9222L56.6804 37.8372Z" fill="#B24A47"/>
<path d="M57.7618 38.7486L57.8468 39.7449L56.8504 39.83L56.7654 38.8336L57.7618 38.7486Z" fill="#B24A47"/>
<path d="M57.8468 39.7449L57.9318 40.7413L56.9354 40.8263L56.8504 39.83L57.8468 39.7449Z" fill="#B24A47"/>
<path d="M58.8432 39.6599L58.9282 40.6563L57.9318 40.7413L57.8468 39.7449L58.8432 39.6599Z" fill="#B24A47"/>
<path d="M58.7582 38.6635L58.8432 39.6599L57.8468 39.7449L57.7618 38.7486L58.7582 38.6635Z" fill="#B24A47"/>
<path d="M59.6695 37.5821L59.7545 38.5785L58.7582 38.6635L58.6731 37.6672L59.6695 37.5821Z" fill="#B24A47"/>
<path d="M59.7545 38.5785L59.8396 39.5749L58.8432 39.6599L58.7582 38.6635L59.7545 38.5785Z" fill="#B24A47"/>
<path d="M60.7509 38.4935L60.8359 39.4899L59.8396 39.5749L59.7545 38.5785L60.7509 38.4935Z" fill="#B24A47"/>
<path d="M60.6659 37.4971L60.7509 38.4935L59.7545 38.5785L59.6695 37.5821L60.6659 37.4971Z" fill="#B24A47"/>
<path d="M61.5773 36.4157L61.6623 37.4121L60.6659 37.4971L60.5809 36.5007L61.5773 36.4157Z" fill="#B24A47"/>
<path d="M61.6623 37.4121L61.7473 38.4085L60.7509 38.4935L60.6659 37.4971L61.6623 37.4121Z" fill="#B24A47"/>
<path d="M62.6586 37.3271L62.7437 38.3235L61.7473 38.4085L61.6623 37.4121L62.6586 37.3271Z" fill="#B24A47"/>
<path d="M62.5736 36.3307L62.6586 37.3271L61.6623 37.4121L61.5773 36.4157L62.5736 36.3307Z" fill="#B24A47"/>
<path d="M63.485 35.2493L63.57 36.2457L62.5736 36.3307L62.4886 35.3343L63.485 35.2493Z" fill="#B24A47"/>
<path d="M63.57 36.2457L63.655 37.2421L62.6586 37.3271L62.5736 36.3307L63.57 36.2457Z" fill="#B24A47"/>
<path d="M64.4814 35.1643L64.5664 36.1607L63.57 36.2457L63.485 35.2493L64.4814 35.1643Z" fill="#B24A47"/>
<path d="M64.3963 34.1679L64.4814 35.1643L63.485 35.2493L63.4 34.2529L64.3963 34.1679Z" fill="#B24A47"/>
<path d="M65.3077 33.0865L65.3927 34.0829L64.3963 34.1679L64.3113 33.1715L65.3077 33.0865Z" fill="#B24A47"/>
<path d="M66.2191 32.0051L66.3041 33.0015L65.3077 33.0865L65.2227 32.0901L66.2191 32.0051Z" fill="#B24A47"/>
<path d="M67.2154 31.9201L67.3005 32.9165L66.3041 33.0015L66.2191 32.0051L67.2154 31.9201Z" fill="#B24A47"/>
<path d="M68.1268 30.8387L68.2118 31.8351L67.2154 31.9201L67.1304 30.9237L68.1268 30.8387Z" fill="#B24A47"/>
<path d="M68.2118 31.8351L68.2968 32.8314L67.3005 32.9165L67.2154 31.9201L68.2118 31.8351Z" fill="#B24A47"/>
<path d="M69.1232 30.7537L69.2082 31.75L68.2118 31.8351L68.1268 30.8387L69.1232 30.7537Z" fill="#B24A47"/>
<path d="M70.0345 29.6723L70.1196 30.6686L69.1232 30.7537L69.0382 29.7573L70.0345 29.6723Z" fill="#B24A47"/>
<path d="M70.9459 28.5909L71.0309 29.5872L70.0345 29.6723L69.9495 28.6759L70.9459 28.5909Z" fill="#B24A47"/>
<path d="M70.8609 27.5945L70.9459 28.5909L69.9495 28.6759L69.8645 27.6795L70.8609 27.5945Z" fill="#B24A47"/>
<path d="M71.8573 27.5095L71.9423 28.5059L70.9459 28.5909L70.8609 27.5945L71.8573 27.5095Z" fill="#B24A47"/>
<path d="M71.7722 26.5131L71.8573 27.5095L70.8609 27.5945L70.7759 26.5981L71.7722 26.5131Z" fill="#B24A47"/>
<path d="M72.6836 25.4317L72.7686 26.4281L71.7722 26.5131L71.6872 25.5167L72.6836 25.4317Z" fill="#B24A47"/>
<path d="M72.7686 26.4281L72.8536 27.4245L71.8573 27.5095L71.7722 26.5131L72.7686 26.4281Z" fill="#B24A47"/>
<path d="M73.765 26.3431L73.85 27.3394L72.8536 27.4245L72.7686 26.4281L73.765 26.3431Z" fill="#B24A47"/>
<path d="M73.68 25.3467L73.765 26.3431L72.7686 26.4281L72.6836 25.4317L73.68 25.3467Z" fill="#B24A47"/>
<path d="M74.6764 25.2617L74.7614 26.258L73.765 26.3431L73.68 25.3467L74.6764 25.2617Z" fill="#B24A47"/>
<path d="M74.7614 26.258L74.8464 27.2544L73.85 27.3394L73.765 26.3431L74.7614 26.258Z" fill="#B24A47"/>
<path d="M72.9387 28.4208L73.0237 29.4172L72.0273 29.5022L71.9423 28.5059L72.9387 28.4208Z" fill="#B24A47"/>
<path d="M72.0273 29.5022L72.1123 30.4986L71.1159 30.5836L71.0309 29.5872L72.0273 29.5022Z" fill="#B24A47"/>
<path d="M71.1159 30.5836L71.201 31.58L70.2046 31.665L70.1196 30.6686L71.1159 30.5836Z" fill="#B24A47"/>
<path d="M70.2046 31.665L70.2896 32.6614L69.2932 32.7464L69.2082 31.75L70.2046 31.665Z" fill="#B24A47"/>
<path d="M69.2932 32.7464L69.3782 33.7428L68.3819 33.8278L68.2968 32.8314L69.2932 32.7464Z" fill="#B24A47"/>
<path d="M68.3819 33.8278L68.4669 34.8242L67.4705 34.9092L67.3855 33.9128L68.3819 33.8278Z" fill="#B24A47"/>
<path d="M66.4741 34.9942L66.5591 35.9906L65.5628 36.0756L65.4777 35.0793L66.4741 34.9942Z" fill="#B24A47"/>
<path d="M65.6478 37.072L65.7328 38.0684L64.7364 38.1534L64.6514 37.157L65.6478 37.072Z" fill="#B24A47"/>
<path d="M65.7328 38.0684L65.8178 39.0648L64.8214 39.1498L64.7364 38.1534L65.7328 38.0684Z" fill="#B24A47"/>
<path d="M64.8214 39.1498L64.9065 40.1462L63.9101 40.2312L63.8251 39.2348L64.8214 39.1498Z" fill="#B24A47"/>
<path d="M63.9101 40.2312L63.9951 41.2276L62.9987 41.3126L62.9137 40.3162L63.9101 40.2312Z" fill="#B24A47"/>
<path d="M62.9137 40.3162L62.9987 41.3126L62.0023 41.3976L61.9173 40.4012L62.9137 40.3162Z" fill="#B24A47"/>
<path d="M61.9173 40.4012L62.0023 41.3976L61.006 41.4826L60.921 40.4863L61.9173 40.4012Z" fill="#B24A47"/>
<path d="M61.006 41.4826L61.091 42.479L60.0946 42.564L60.0096 41.5677L61.006 41.4826Z" fill="#B24A47"/>
<path d="M60.0946 42.564L60.1796 43.5604L59.1833 43.6454L59.0982 42.6491L60.0946 42.564Z" fill="#B24A47"/>
<path d="M59.0982 42.6491L59.1833 43.6454L58.1869 43.7305L58.1019 42.7341L59.0982 42.6491Z" fill="#B24A47"/>
<path d="M58.1869 43.7305L58.2719 44.7268L57.2755 44.8119L57.1905 43.8155L58.1869 43.7305Z" fill="#B24A47"/>
<path d="M74.8464 27.2544L74.9314 28.2508L71.9423 28.5059L71.8573 27.5095L74.8464 27.2544Z" fill="#F3A282"/>
<path d="M71.9423 28.5059L72.0273 29.5022L71.0309 29.5872L70.9459 28.5909L71.9423 28.5059Z" fill="#F3A282"/>
<path d="M71.0309 29.5872L71.1159 30.5836L70.1196 30.6686L70.0345 29.6723L71.0309 29.5872Z" fill="#F3A282"/>
<path d="M70.1196 30.6686L70.2046 31.665L69.2082 31.75L69.1232 30.7537L70.1196 30.6686Z" fill="#F3A282"/>
<path d="M69.2082 31.75L69.2932 32.7464L68.2968 32.8314L68.2118 31.8351L69.2082 31.75Z" fill="#F3A282"/>
<path d="M68.2968 32.8314L68.3819 33.8278L65.3927 34.0829L65.3077 33.0865L68.2968 32.8314Z" fill="#F3A282"/>
<path d="M67.3855 33.9128L67.4705 34.9092L64.4814 35.1643L64.3963 34.1679L67.3855 33.9128Z" fill="#F3A282"/>
<path d="M65.4777 35.0793L65.6478 37.072L64.6514 37.157L64.4814 35.1643L65.4777 35.0793Z" fill="#F3A282"/>
<path d="M64.5664 36.1607L64.8214 39.1498L63.8251 39.2348L63.57 36.2457L64.5664 36.1607Z" fill="#F3A282"/>
<path d="M63.655 37.2421L63.9101 40.2312L62.9137 40.3162L62.6586 37.3271L63.655 37.2421Z" fill="#F3A282"/>
<path d="M62.7437 38.3235L62.9137 40.3162L61.9173 40.4012L61.7473 38.4085L62.7437 38.3235Z" fill="#F3A282"/>
<path d="M61.7473 38.4085L61.9173 40.4012L60.921 40.4863L60.7509 38.4935L61.7473 38.4085Z" fill="#F3A282"/>
<path d="M60.8359 39.4899L61.006 41.4826L60.0096 41.5677L59.8396 39.5749L60.8359 39.4899Z" fill="#F3A282"/>
<path d="M59.8396 39.5749L60.0946 42.564L59.0982 42.6491L58.8432 39.6599L59.8396 39.5749Z" fill="#F3A282"/>
<path d="M58.9282 40.6563L59.0982 42.6491L58.1019 42.7341L57.9318 40.7413L58.9282 40.6563Z" fill="#F3A282"/>
<path d="M57.9318 40.7413L58.1869 43.7305L57.1905 43.8155L56.9354 40.8263L57.9318 40.7413Z" fill="#F3A282"/>
<path d="M57.0205 41.8227L57.1055 42.8191L56.1091 42.9041L56.0241 41.9077L57.0205 41.8227Z" fill="#F3A282"/>
<path d="M56.5954 36.8408L56.6804 37.8372L55.684 37.9222L55.599 36.9258L56.5954 36.8408Z" fill="#EECBAD"/>
<path d="M57.5067 35.7594L57.7618 38.7486L56.7654 38.8336L56.5103 35.8444L57.5067 35.7594Z" fill="#EECBAD"/>
<path d="M58.5031 35.6744L58.7582 38.6635L57.7618 38.7486L57.5067 35.7594L58.5031 35.6744Z" fill="#EECBAD"/>
<path d="M59.4995 35.5894L59.6695 37.5821L58.6731 37.6672L58.5031 35.6744L59.4995 35.5894Z" fill="#EECBAD"/>
<path d="M60.4108 34.508L60.6659 37.4971L59.6695 37.5821L59.4145 34.593L60.4108 34.508Z" fill="#EECBAD"/>
<path d="M61.4072 34.423L61.5773 36.4157L60.5809 36.5007L60.4108 34.508L61.4072 34.423Z" fill="#EECBAD"/>
<path d="M66.9604 28.931L67.2154 31.9201L66.2191 32.0051L65.964 29.016L66.9604 28.931Z" fill="#EECBAD"/>
<path d="M67.9568 28.8459L68.1268 30.8387L67.1304 30.9237L66.9604 28.931L67.9568 28.8459Z" fill="#EECBAD"/>
<path d="M68.8681 27.7645L69.1232 30.7537L68.1268 30.8387L67.8717 27.8496L68.8681 27.7645Z" fill="#EECBAD"/>
<path d="M69.6945 25.6868L70.0345 29.6723L69.0382 29.7573L68.6981 25.7718L69.6945 25.6868Z" fill="#EECBAD"/>
<path d="M70.6058 24.6054L70.8609 27.5945L69.8645 27.6795L69.6094 24.6904L70.6058 24.6054Z" fill="#EECBAD"/>
<path d="M71.5172 23.524L71.7722 26.5131L70.7759 26.5981L70.5208 23.609L71.5172 23.524Z" fill="#EECBAD"/>
<path d="M72.5136 23.4389L72.6836 25.4317L71.6872 25.5167L71.5172 23.524L72.5136 23.4389Z" fill="#EECBAD"/>
<path d="M73.5099 23.3539L73.68 25.3467L72.6836 25.4317L72.5136 23.4389L73.5099 23.3539Z" fill="#EECBAD"/>
<path d="M74.4213 22.2725L74.6764 25.2617L73.68 25.3467L73.4249 22.3575L74.4213 22.2725Z" fill="#EECBAD"/>
<path d="M75.4177 22.1875L75.6727 25.1766L74.6764 25.2617L74.4213 22.2725L75.4177 22.1875Z" fill="#EECBAD"/>
<path d="M74.2513 20.2798L74.3363 21.2761L73.3399 21.3612L73.2549 20.3648L74.2513 20.2798Z" fill="#66110D"/>
<path d="M73.3399 21.3612L73.4249 22.3575L72.4285 22.4426L72.3435 21.4462L73.3399 21.3612Z" fill="#66110D"/>
<path d="M72.3435 21.4462L72.4285 22.4426L71.4322 22.5276L71.3471 21.5312L72.3435 21.4462Z" fill="#66110D"/>
<path d="M71.3471 21.5312L71.4322 22.5276L70.4358 22.6126L70.3508 21.6162L71.3471 21.5312Z" fill="#66110D"/>
<path d="M70.3508 21.6162L70.4358 22.6126L69.4394 22.6976L69.3544 21.7012L70.3508 21.6162Z" fill="#66110D"/>
<path d="M69.4394 22.6976L69.5244 23.694L68.528 23.779L68.443 22.7826L69.4394 22.6976Z" fill="#66110D"/>
<path d="M68.528 23.779L68.6131 24.7754L67.6167 24.8604L67.5317 23.864L68.528 23.779Z" fill="#66110D"/>
<path d="M67.6167 24.8604L67.7017 25.8568L66.7053 25.9418L66.6203 24.9454L67.6167 24.8604Z" fill="#66110D"/>
<path d="M67.7017 25.8568L67.7867 26.8532L66.7903 26.9382L66.7053 25.9418L67.7017 25.8568Z" fill="#66110D"/>
<path d="M66.7903 26.9382L66.8754 27.9346L65.879 28.0196L65.794 27.0232L66.7903 26.9382Z" fill="#66110D"/>
<path d="M65.794 27.0232L65.879 28.0196L64.8826 28.1046L64.7976 27.1082L65.794 27.0232Z" fill="#66110D"/>
<path d="M64.7976 27.1082L64.8826 28.1046L63.8862 28.1896L63.8012 27.1933L64.7976 27.1082Z" fill="#66110D"/>
<path d="M63.8012 27.1933L63.8862 28.1896L62.8899 28.2747L62.8048 27.2783L63.8012 27.1933Z" fill="#66110D"/>
<path d="M62.8899 28.2747L62.9749 29.271L61.9785 29.3561L61.8935 28.3597L62.8899 28.2747Z" fill="#66110D"/>
<path d="M61.9785 29.3561L62.0635 30.3524L61.0671 30.4375L60.9821 29.4411L61.9785 29.3561Z" fill="#66110D"/>
<path d="M61.0671 30.4375L61.1521 31.4338L60.1558 31.5188L60.0708 30.5225L61.0671 30.4375Z" fill="#66110D"/>
<path d="M61.1521 31.4338L61.2372 32.4302L60.2408 32.5152L60.1558 31.5188L61.1521 31.4338Z" fill="#66110D"/>
<path d="M60.2408 32.5152L60.3258 33.5116L59.3294 33.5966L59.2444 32.6002L60.2408 32.5152Z" fill="#66110D"/>
<path d="M59.2444 32.6002L59.3294 33.5966L58.3331 33.6816L58.248 32.6853L59.2444 32.6002Z" fill="#66110D"/>
<path d="M58.3331 33.6816L58.4181 34.678L57.4217 34.763L57.3367 33.7667L58.3331 33.6816Z" fill="#66110D"/>
<path d="M57.3367 33.7667L57.4217 34.763L56.4253 34.8481L56.3403 33.8517L57.3367 33.7667Z" fill="#66110D"/>
<path d="M56.4253 34.8481L56.5103 35.8444L55.514 35.9295L55.4289 34.9331L56.4253 34.8481Z" fill="#66110D"/>
<path d="M55.4289 34.9331L55.514 35.9295L54.5176 36.0145L54.4326 35.0181L55.4289 34.9331Z" fill="#66110D"/>
<path d="M54.5176 36.0145L54.6026 37.0109L53.6062 37.0959L53.5212 36.0995L54.5176 36.0145Z" fill="#66110D"/>
<path d="M54.6026 37.0109L54.6876 38.0072L53.6912 38.0923L53.6062 37.0959L54.6026 37.0109Z" fill="#66110D"/>
<path d="M55.684 37.9222L55.769 38.9186L54.7726 39.0036L54.6876 38.0072L55.684 37.9222Z" fill="#66110D"/>
<path d="M56.7654 38.8336L56.8504 39.83L55.854 39.915L55.769 38.9186L56.7654 38.8336Z" fill="#66110D"/>
<path d="M56.8504 39.83L56.9354 40.8263L55.9391 40.9114L55.854 39.915L56.8504 39.83Z" fill="#66110D"/>
<path d="M56.9354 40.8263L57.0205 41.8227L56.0241 41.9077L55.9391 40.9114L56.9354 40.8263Z" fill="#66110D"/>
<path d="M56.0241 41.9077L56.1091 42.9041L55.1127 42.9891L55.0277 41.9928L56.0241 41.9077Z" fill="#66110D"/>
<path d="M57.1055 42.8191L57.1905 43.8155L56.1941 43.9005L56.1091 42.9041L57.1055 42.8191Z" fill="#66110D"/>
<path d="M57.1905 43.8155L57.2755 44.8119L56.2791 44.8969L56.1941 43.9005L57.1905 43.8155Z" fill="#66110D"/>
<path d="M57.2755 44.8119L57.3605 45.8082L56.3642 45.8933L56.2791 44.8969L57.2755 44.8119Z" fill="#66110D"/>
<path d="M58.2719 44.7268L58.3569 45.7232L57.3605 45.8082L57.2755 44.8119L58.2719 44.7268Z" fill="#66110D"/>
<path d="M59.2683 44.6418L59.3533 45.6382L58.3569 45.7232L58.2719 44.7268L59.2683 44.6418Z" fill="#66110D"/>
<path d="M59.1833 43.6454L59.2683 44.6418L58.2719 44.7268L58.1869 43.7305L59.1833 43.6454Z" fill="#66110D"/>
<path d="M60.1796 43.5604L60.2647 44.5568L59.2683 44.6418L59.1833 43.6454L60.1796 43.5604Z" fill="#66110D"/>
<path d="M61.091 42.479L61.176 43.4754L60.1796 43.5604L60.0946 42.564L61.091 42.479Z" fill="#66110D"/>
<path d="M62.0023 41.3976L62.0874 42.394L61.091 42.479L61.006 41.4826L62.0023 41.3976Z" fill="#66110D"/>
<path d="M62.9987 41.3126L63.0838 42.309L62.0874 42.394L62.0023 41.3976L62.9987 41.3126Z" fill="#66110D"/>
<path d="M63.9951 41.2276L64.0801 42.224L63.0838 42.309L62.9987 41.3126L63.9951 41.2276Z" fill="#66110D"/>
<path d="M64.9065 40.1462L64.9915 41.1426L63.9951 41.2276L63.9101 40.2312L64.9065 40.1462Z" fill="#66110D"/>
<path d="M65.8178 39.0648L65.9028 40.0612L64.9065 40.1462L64.8214 39.1498L65.8178 39.0648Z" fill="#66110D"/>
<path d="M66.7292 37.9834L66.8142 38.9798L65.8178 39.0648L65.7328 38.0684L66.7292 37.9834Z" fill="#66110D"/>
<path d="M66.6442 36.987L66.7292 37.9834L65.7328 38.0684L65.6478 37.072L66.6442 36.987Z" fill="#66110D"/>
<path d="M66.5591 35.9906L66.6442 36.987L65.6478 37.072L65.5628 36.0756L66.5591 35.9906Z" fill="#66110D"/>
<path d="M67.4705 34.9092L67.5555 35.9056L66.5591 35.9906L66.4741 34.9942L67.4705 34.9092Z" fill="#66110D"/>
<path d="M68.4669 34.8242L68.5519 35.8206L67.5555 35.9056L67.4705 34.9092L68.4669 34.8242Z" fill="#66110D"/>
<path d="M69.3782 33.7428L69.4633 34.7392L68.4669 34.8242L68.3819 33.8278L69.3782 33.7428Z" fill="#66110D"/>
<path d="M75.3327 21.1911L75.4177 22.1875L74.4213 22.2725L74.3363 21.2761L75.3327 21.1911Z" fill="#66110D"/>
<path d="M76.4141 22.1025L76.4991 23.0989L75.5027 23.1839L75.4177 22.1875L76.4141 22.1025Z" fill="#66110D"/>
<path d="M76.4991 23.0989L76.5841 24.0952L75.5877 24.1803L75.5027 23.1839L76.4991 23.0989Z" fill="#66110D"/>
<path d="M76.5841 24.0952L76.6691 25.0916L75.6727 25.1766L75.5877 24.1803L76.5841 24.0952Z" fill="#66110D"/>
<path d="M75.6727 25.1766L75.7578 26.173L74.7614 26.258L74.6764 25.2617L75.6727 25.1766Z" fill="#66110D"/>
<path d="M75.7578 26.173L75.8428 27.1694L74.8464 27.2544L74.7614 26.258L75.7578 26.173Z" fill="#66110D"/>
<path d="M75.8428 27.1694L75.9278 28.1658L74.9314 28.2508L74.8464 27.2544L75.8428 27.1694Z" fill="#66110D"/>
<path d="M75.9278 28.1658L76.0128 29.1621L75.0164 29.2472L74.9314 28.2508L75.9278 28.1658Z" fill="#66110D"/>
<path d="M74.9314 28.2508L75.0164 29.2472L74.0201 29.3322L73.935 28.3358L74.9314 28.2508Z" fill="#66110D"/>
<path d="M73.935 28.3358L74.0201 29.3322L73.0237 29.4172L72.9387 28.4208L73.935 28.3358Z" fill="#66110D"/>
<path d="M73.0237 29.4172L73.1087 30.4136L72.1123 30.4986L72.0273 29.5022L73.0237 29.4172Z" fill="#66110D"/>
<path d="M72.1123 30.4986L72.1973 31.495L71.201 31.58L71.1159 30.5836L72.1123 30.4986Z" fill="#66110D"/>
<path d="M71.201 31.58L71.286 32.5764L70.2896 32.6614L70.2046 31.665L71.201 31.58Z" fill="#66110D"/>
<path d="M71.201 31.58L71.286 32.5764L70.2896 32.6614L70.2046 31.665L71.201 31.58Z" fill="#66110D"/>
<path d="M70.2896 32.6614L70.3746 33.6578L69.3782 33.7428L69.2932 32.7464L70.2896 32.6614Z" fill="#66110D"/>
<path d="M70.3746 33.6578L70.4596 34.6542L69.4633 34.7392L69.3782 33.7428L70.3746 33.6578Z" fill="#66110D"/>
<path d="M62.2397 63.3031L61.6226 64.09L60.8357 63.4729L61.4528 62.686L62.2397 63.3031Z" fill="#66110D"/>
<path d="M60.8357 63.4729L60.2186 64.2598L59.4317 63.6427L60.0488 62.8558L60.8357 63.4729Z" fill="#B24A47"/>
<path d="M59.4317 63.6427L58.8146 64.4296L58.0277 63.8125L58.6448 63.0256L59.4317 63.6427Z" fill="#B24A47"/>
<path d="M58.6448 63.0256L58.0277 63.8125L57.2408 63.1954L57.8579 62.4085L58.6448 63.0256Z" fill="#B24A47"/>
<path d="M57.8579 62.4085L57.2408 63.1954L56.4539 62.5783L57.0711 61.7914L57.8579 62.4085Z" fill="#B24A47"/>
<path d="M57.0711 61.7914L56.4539 62.5783L55.6671 61.9611L56.2842 61.1743L57.0711 61.7914Z" fill="#B24A47"/>
<path d="M56.4539 62.5783L55.8368 63.3651L55.05 62.748L55.6671 61.9611L56.4539 62.5783Z" fill="#B24A47"/>
<path d="M55.6671 61.9611L55.05 62.748L54.2631 62.1309L54.8802 61.344L55.6671 61.9611Z" fill="#B24A47"/>
<path d="M55.05 62.748L54.4329 63.5349L53.646 62.9178L54.2631 62.1309L55.05 62.748Z" fill="#B24A47"/>
<path d="M54.2631 62.1309L53.646 62.9178L52.8591 62.3007L53.4762 61.5138L54.2631 62.1309Z" fill="#B24A47"/>
<path d="M53.646 62.9178L53.0289 63.7047L52.242 63.0876L52.8591 62.3007L53.646 62.9178Z" fill="#B24A47"/>
<path d="M53.0289 63.7047L52.4118 64.4916L51.6249 63.8745L52.242 63.0876L53.0289 63.7047Z" fill="#B24A47"/>
<path d="M52.242 63.0876L51.6249 63.8745L50.838 63.2574L51.4551 62.4705L52.242 63.0876Z" fill="#B24A47"/>
<path d="M51.6249 63.8745L51.0078 64.6613L50.2209 64.0442L50.838 63.2574L51.6249 63.8745Z" fill="#B24A47"/>
<path d="M50.838 63.2574L50.2209 64.0442L49.434 63.4271L50.0511 62.6402L50.838 63.2574Z" fill="#B24A47"/>
<path d="M50.0511 62.6402L49.434 63.4271L48.6471 62.81L49.2642 62.0231L50.0511 62.6402Z" fill="#B24A47"/>
<path d="M49.2642 62.0231L48.6471 62.81L47.8603 62.1929L48.4774 61.406L49.2642 62.0231Z" fill="#B24A47"/>
<path d="M48.4774 61.406L47.8603 62.1929L47.0734 61.5758L47.6905 60.7889L48.4774 61.406Z" fill="#B24A47"/>
<path d="M47.8603 62.1929L47.2432 62.9798L46.4563 62.3627L47.0734 61.5758L47.8603 62.1929Z" fill="#B24A47"/>
<path d="M48.6471 62.81L48.03 63.5969L47.2432 62.9798L47.8603 62.1929L48.6471 62.81Z" fill="#B24A47"/>
<path d="M47.2432 62.9798L46.626 63.7667L45.8392 63.1496L46.4563 62.3627L47.2432 62.9798Z" fill="#B24A47"/>
<path d="M48.03 63.5969L47.4129 64.3838L46.626 63.7667L47.2432 62.9798L48.03 63.5969Z" fill="#EECBAD"/>
<path d="M49.434 63.4271L48.8169 64.214L48.03 63.5969L48.6471 62.81L49.434 63.4271Z" fill="#EECBAD"/>
<path d="M46.626 63.7667L46.0089 64.5536L45.2221 63.9365L45.8392 63.1496L46.626 63.7667Z" fill="#EECBAD"/>
<path d="M45.2221 63.9365L44.605 64.7233L43.8181 64.1062L44.4352 63.3194L45.2221 63.9365Z" fill="#EECBAD"/>
<path d="M43.8181 64.1062L43.201 64.8931L42.4141 64.276L43.0312 63.4891L43.8181 64.1062Z" fill="#EECBAD"/>
<path d="M46.7958 65.1707L46.1787 65.9575L45.3918 65.3404L46.0089 64.5536L46.7958 65.1707Z" fill="#EECBAD"/>
<path d="M45.3918 65.3404L44.7747 66.1273L43.9879 65.5102L44.605 64.7233L45.3918 65.3404Z" fill="#EECBAD"/>
<path d="M43.9879 65.5102L43.3707 66.2971L42.5839 65.68L43.201 64.8931L43.9879 65.5102Z" fill="#EECBAD"/>
<path d="M43.201 64.8931L42.5839 65.68L41.797 65.0629L42.4141 64.276L43.201 64.8931Z" fill="#F8ECDC"/>
<path d="M42.5839 65.68L41.9668 66.4669L41.1799 65.8498L41.797 65.0629L42.5839 65.68Z" fill="#F8ECDC"/>
<path d="M44.605 64.7233L43.9879 65.5102L43.201 64.8931L43.8181 64.1062L44.605 64.7233Z" fill="#F8ECDC"/>
<path d="M46.0089 64.5536L45.3918 65.3404L44.605 64.7233L45.2221 63.9365L46.0089 64.5536Z" fill="#F8ECDC"/>
<path d="M47.4129 64.3838L46.7958 65.1707L46.0089 64.5536L46.626 63.7667L47.4129 64.3838Z" fill="#F8ECDC"/>
<path d="M48.1998 65.0009L47.5827 65.7878L46.7958 65.1707L47.4129 64.3838L48.1998 65.0009Z" fill="#F8ECDC"/>
<path d="M48.8169 64.214L48.1998 65.0009L47.4129 64.3838L48.03 63.5969L48.8169 64.214Z" fill="#F8ECDC"/>
<path d="M47.0734 61.5758L46.4563 62.3627L45.6694 61.7456L46.2865 60.9587L47.0734 61.5758Z" fill="#B24A47"/>
<path d="M45.6694 61.7456L45.0523 62.5325L44.2654 61.9154L44.8825 61.1285L45.6694 61.7456Z" fill="#B24A47"/>
<path d="M45.0523 62.5325L44.4352 63.3194L43.6483 62.7022L44.2654 61.9154L45.0523 62.5325Z" fill="#B24A47"/>
<path d="M46.4563 62.3627L45.8392 63.1496L45.0523 62.5325L45.6694 61.7456L46.4563 62.3627Z" fill="#B24A47"/>
<path d="M45.8392 63.1496L45.2221 63.9365L44.4352 63.3194L45.0523 62.5325L45.8392 63.1496Z" fill="#B24A47"/>
<path d="M44.4352 63.3194L43.8181 64.1062L43.0312 63.4891L43.6483 62.7022L44.4352 63.3194Z" fill="#B24A47"/>
<path d="M43.6483 62.7022L43.0312 63.4891L42.2443 62.872L42.8614 62.0851L43.6483 62.7022Z" fill="#B24A47"/>
<path d="M43.0312 63.4891L42.4141 64.276L41.6272 63.6589L42.2443 62.872L43.0312 63.4891Z" fill="#B24A47"/>
<path d="M42.2443 62.872L41.6272 63.6589L40.8403 63.0418L41.4574 62.2549L42.2443 62.872Z" fill="#B24A47"/>
<path d="M41.4574 62.2549L40.8403 63.0418L40.0534 62.4247L40.6706 61.6378L41.4574 62.2549Z" fill="#B24A47"/>
<path d="M40.8403 63.0418L40.2232 63.8287L37.0757 61.3603L37.6928 60.5734L40.8403 63.0418Z" fill="#B24A47"/>
<path d="M37.8626 61.9774L37.2455 62.7642L35.6717 61.53L36.2888 60.7431L37.8626 61.9774Z" fill="#B24A47"/>
<path d="M36.4586 62.1471L35.8415 62.934L35.0546 62.3169L35.6717 61.53L36.4586 62.1471Z" fill="#B24A47"/>
<path d="M36.6284 63.5511L36.0113 64.338L35.2244 63.7209L35.8415 62.934L36.6284 63.5511Z" fill="#B24A47"/>
<path d="M36.7981 64.9551L36.181 65.742L35.3942 65.1249L36.0113 64.338L36.7981 64.9551Z" fill="#B24A47"/>
<path d="M36.181 65.742L35.5639 66.5289L34.7771 65.9118L35.3942 65.1249L36.181 65.742Z" fill="#B24A47"/>
<path d="M36.9679 66.3591L36.3508 67.146L35.5639 66.5289L36.181 65.742L36.9679 66.3591Z" fill="#B24A47"/>
<path d="M37.585 65.5722L36.9679 66.3591L36.181 65.742L36.7981 64.9551L37.585 65.5722Z" fill="#B24A47"/>
<path d="M38.989 65.4024L38.3719 66.1893L37.585 65.5722L38.2021 64.7853L38.989 65.4024Z" fill="#B24A47"/>
<path d="M38.3719 66.1893L37.7548 66.9762L36.9679 66.3591L37.585 65.5722L38.3719 66.1893Z" fill="#B24A47"/>
<path d="M39.1588 66.8064L38.5417 67.5933L37.7548 66.9762L38.3719 66.1893L39.1588 66.8064Z" fill="#B24A47"/>
<path d="M39.7759 66.0195L39.1588 66.8064L38.3719 66.1893L38.989 65.4024L39.7759 66.0195Z" fill="#B24A47"/>
<path d="M41.1799 65.8498L40.5628 66.6367L39.7759 66.0195L40.393 65.2327L41.1799 65.8498Z" fill="#B24A47"/>
<path d="M40.5628 66.6367L39.9457 67.4235L39.1588 66.8064L39.7759 66.0195L40.5628 66.6367Z" fill="#B24A47"/>
<path d="M41.3497 67.2538L40.7326 68.0406L39.9457 67.4235L40.5628 66.6367L41.3497 67.2538Z" fill="#B24A47"/>
<path d="M41.9668 66.4669L41.3497 67.2538L40.5628 66.6367L41.1799 65.8498L41.9668 66.4669Z" fill="#B24A47"/>
<path d="M43.3707 66.2971L42.7536 67.084L41.9668 66.4669L42.5839 65.68L43.3707 66.2971Z" fill="#B24A47"/>
<path d="M42.7536 67.084L42.1365 67.8709L41.3497 67.2538L41.9668 66.4669L42.7536 67.084Z" fill="#B24A47"/>
<path d="M44.1576 66.9142L43.5405 67.7011L42.7536 67.084L43.3707 66.2971L44.1576 66.9142Z" fill="#B24A47"/>
<path d="M44.7747 66.1273L44.1576 66.9142L43.3707 66.2971L43.9879 65.5102L44.7747 66.1273Z" fill="#B24A47"/>
<path d="M46.1787 65.9575L45.5616 66.7444L44.7747 66.1273L45.3918 65.3404L46.1787 65.9575Z" fill="#B24A47"/>
<path d="M47.5827 65.7878L46.9656 66.5746L46.1787 65.9575L46.7958 65.1707L47.5827 65.7878Z" fill="#B24A47"/>
<path d="M48.3696 66.4049L47.7525 67.1918L46.9656 66.5746L47.5827 65.7878L48.3696 66.4049Z" fill="#B24A47"/>
<path d="M49.7736 66.2351L49.1565 67.022L48.3696 66.4049L48.9867 65.618L49.7736 66.2351Z" fill="#B24A47"/>
<path d="M49.1565 67.022L48.5394 67.8089L47.7525 67.1918L48.3696 66.4049L49.1565 67.022Z" fill="#B24A47"/>
<path d="M50.5605 66.8522L49.9433 67.6391L49.1565 67.022L49.7736 66.2351L50.5605 66.8522Z" fill="#B24A47"/>
<path d="M51.9644 66.6824L51.3473 67.4693L50.5605 66.8522L51.1776 66.0653L51.9644 66.6824Z" fill="#B24A47"/>
<path d="M53.3684 66.5127L52.7513 67.2995L51.9644 66.6824L52.5815 65.8955L53.3684 66.5127Z" fill="#B24A47"/>
<path d="M53.9855 65.7258L53.3684 66.5127L52.5815 65.8955L53.1987 65.1087L53.9855 65.7258Z" fill="#B24A47"/>
<path d="M54.7724 66.3429L54.1553 67.1298L53.3684 66.5127L53.9855 65.7258L54.7724 66.3429Z" fill="#B24A47"/>
<path d="M55.3895 65.556L54.7724 66.3429L53.9855 65.7258L54.6026 64.9389L55.3895 65.556Z" fill="#B24A47"/>
<path d="M56.7935 65.3862L56.1764 66.1731L55.3895 65.556L56.0066 64.7691L56.7935 65.3862Z" fill="#B24A47"/>
<path d="M56.1764 66.1731L55.5593 66.96L54.7724 66.3429L55.3895 65.556L56.1764 66.1731Z" fill="#B24A47"/>
<path d="M56.9633 66.7902L56.3462 67.5771L55.5593 66.96L56.1764 66.1731L56.9633 66.7902Z" fill="#B24A47"/>
<path d="M57.5804 66.0033L56.9633 66.7902L56.1764 66.1731L56.7935 65.3862L57.5804 66.0033Z" fill="#B24A47"/>
<path d="M58.3673 66.6204L57.7502 67.4073L56.9633 66.7902L57.5804 66.0033L58.3673 66.6204Z" fill="#B24A47"/>
<path d="M57.7502 67.4073L57.1331 68.1942L56.3462 67.5771L56.9633 66.7902L57.7502 67.4073Z" fill="#B24A47"/>
<path d="M54.9422 67.7469L54.3251 68.5337L53.5382 67.9166L54.1553 67.1298L54.9422 67.7469Z" fill="#B24A47"/>
<path d="M53.5382 67.9166L52.9211 68.7035L52.1342 68.0864L52.7513 67.2995L53.5382 67.9166Z" fill="#B24A47"/>
<path d="M52.1342 68.0864L51.5171 68.8733L50.7302 68.2562L51.3473 67.4693L52.1342 68.0864Z" fill="#B24A47"/>
<path d="M50.7302 68.2562L50.1131 69.0431L49.3262 68.426L49.9433 67.6391L50.7302 68.2562Z" fill="#B24A47"/>
<path d="M49.3262 68.426L48.7091 69.2128L47.9223 68.5957L48.5394 67.8089L49.3262 68.426Z" fill="#B24A47"/>
<path d="M47.9223 68.5957L47.3052 69.3826L46.5183 68.7655L47.1354 67.9786L47.9223 68.5957Z" fill="#B24A47"/>
<path d="M45.7314 68.1484L45.1143 68.9353L44.3274 68.3182L44.9445 67.5313L45.7314 68.1484Z" fill="#B24A47"/>
<path d="M43.7103 69.1051L43.0932 69.8919L42.3063 69.2748L42.9234 68.488L43.7103 69.1051Z" fill="#B24A47"/>
<path d="M43.0932 69.8919L42.4761 70.6788L41.6892 70.0617L42.3063 69.2748L43.0932 69.8919Z" fill="#B24A47"/>
<path d="M41.6892 70.0617L41.0721 70.8486L40.2852 70.2315L40.9023 69.4446L41.6892 70.0617Z" fill="#B24A47"/>
<path d="M40.2852 70.2315L39.6681 71.0184L38.8812 70.4013L39.4983 69.6144L40.2852 70.2315Z" fill="#B24A47"/>
<path d="M39.4983 69.6144L38.8812 70.4013L38.0944 69.7842L38.7115 68.9973L39.4983 69.6144Z" fill="#B24A47"/>
<path d="M38.7115 68.9973L38.0944 69.7842L37.3075 69.1671L37.9246 68.3802L38.7115 68.9973Z" fill="#B24A47"/>
<path d="M37.3075 69.1671L36.6904 69.9539L35.9035 69.3368L36.5206 68.55L37.3075 69.1671Z" fill="#B24A47"/>
<path d="M35.9035 69.3368L35.2864 70.1237L34.4995 69.5066L35.1166 68.7197L35.9035 69.3368Z" fill="#B24A47"/>
<path d="M35.1166 68.7197L34.4995 69.5066L33.7126 68.8895L34.3297 68.1026L35.1166 68.7197Z" fill="#B24A47"/>
<path d="M33.7126 68.8895L33.0955 69.6764L32.3086 69.0593L32.9257 68.2724L33.7126 68.8895Z" fill="#B24A47"/>
<path d="M57.1331 68.1942L56.5159 68.9811L54.1553 67.1298L54.7724 66.3429L57.1331 68.1942Z" fill="#F3A282"/>
<path d="M54.1553 67.1298L53.5382 67.9166L52.7513 67.2995L53.3684 66.5127L54.1553 67.1298Z" fill="#F3A282"/>
<path d="M52.7513 67.2995L52.1342 68.0864L51.3473 67.4693L51.9644 66.6824L52.7513 67.2995Z" fill="#F3A282"/>
<path d="M51.3473 67.4693L50.7302 68.2562L49.9433 67.6391L50.5605 66.8522L51.3473 67.4693Z" fill="#F3A282"/>
<path d="M49.9433 67.6391L49.3262 68.426L48.5394 67.8089L49.1565 67.022L49.9433 67.6391Z" fill="#F3A282"/>
<path d="M48.5394 67.8089L47.9223 68.5957L45.5616 66.7444L46.1787 65.9575L48.5394 67.8089Z" fill="#F3A282"/>
<path d="M47.1354 67.9786L46.5183 68.7655L44.1576 66.9142L44.7747 66.1273L47.1354 67.9786Z" fill="#F3A282"/>
<path d="M44.9445 67.5313L43.7103 69.1051L42.9234 68.488L44.1576 66.9142L44.9445 67.5313Z" fill="#F3A282"/>
<path d="M43.5405 67.7011L41.6892 70.0617L40.9023 69.4446L42.7536 67.084L43.5405 67.7011Z" fill="#F3A282"/>
<path d="M42.1365 67.8709L40.2852 70.2315L39.4983 69.6144L41.3497 67.2538L42.1365 67.8709Z" fill="#F3A282"/>
<path d="M40.7326 68.0406L39.4983 69.6144L38.7115 68.9973L39.9457 67.4235L40.7326 68.0406Z" fill="#F3A282"/>
<path d="M39.9457 67.4235L38.7115 68.9973L37.9246 68.3802L39.1588 66.8064L39.9457 67.4235Z" fill="#F3A282"/>
<path d="M38.5417 67.5933L37.3075 69.1671L36.5206 68.55L37.7548 66.9762L38.5417 67.5933Z" fill="#F3A282"/>
<path d="M37.7548 66.9762L35.9035 69.3368L35.1166 68.7197L36.9679 66.3591L37.7548 66.9762Z" fill="#F3A282"/>
<path d="M36.3508 67.146L35.1166 68.7197L34.3297 68.1026L35.5639 66.5289L36.3508 67.146Z" fill="#F3A282"/>
<path d="M35.5639 66.5289L33.7126 68.8895L32.9257 68.2724L34.7771 65.9118L35.5639 66.5289Z" fill="#F3A282"/>
<path d="M34.16 66.6986L33.5428 67.4855L32.756 66.8684L33.3731 66.0815L34.16 66.6986Z" fill="#F3A282"/>
<path d="M37.2455 62.7642L36.6284 63.5511L35.8415 62.934L36.4586 62.1471L37.2455 62.7642Z" fill="#EECBAD"/>
<path d="M38.6495 62.5945L36.7981 64.9551L36.0113 64.338L37.8626 61.9774L38.6495 62.5945Z" fill="#EECBAD"/>
<path d="M39.4363 63.2116L37.585 65.5722L36.7981 64.9551L38.6495 62.5945L39.4363 63.2116Z" fill="#EECBAD"/>
<path d="M40.2232 63.8287L38.989 65.4024L38.2021 64.7853L39.4363 63.2116L40.2232 63.8287Z" fill="#EECBAD"/>
<path d="M41.6272 63.6589L39.7759 66.0195L38.989 65.4024L40.8403 63.0418L41.6272 63.6589Z" fill="#EECBAD"/>
<path d="M42.4141 64.276L41.1799 65.8498L40.393 65.2327L41.6272 63.6589L42.4141 64.276Z" fill="#EECBAD"/>
<path d="M50.2209 64.0442L48.3696 66.4049L47.5827 65.7878L49.434 63.4271L50.2209 64.0442Z" fill="#EECBAD"/>
<path d="M51.0078 64.6613L49.7736 66.2351L48.9867 65.618L50.2209 64.0442L51.0078 64.6613Z" fill="#EECBAD"/>
<path d="M52.4118 64.4916L50.5605 66.8522L49.7736 66.2351L51.6249 63.8745L52.4118 64.4916Z" fill="#EECBAD"/>
<path d="M54.4329 63.5349L51.9644 66.6824L51.1776 66.0653L53.646 62.9178L54.4329 63.5349Z" fill="#EECBAD"/>
<path d="M55.8368 63.3651L53.9855 65.7258L53.1987 65.1087L55.05 62.748L55.8368 63.3651Z" fill="#EECBAD"/>
<path d="M57.2408 63.1954L55.3895 65.556L54.6026 64.9389L56.4539 62.5783L57.2408 63.1954Z" fill="#EECBAD"/>
<path d="M58.0277 63.8125L56.7935 65.3862L56.0066 64.7691L57.2408 63.1954L58.0277 63.8125Z" fill="#EECBAD"/>
<path d="M58.8146 64.4296L57.5804 66.0033L56.7935 65.3862L58.0277 63.8125L58.8146 64.4296Z" fill="#EECBAD"/>
<path d="M60.2186 64.2598L58.3673 66.6204L57.5804 66.0033L59.4317 63.6427L60.2186 64.2598Z" fill="#EECBAD"/>
<path d="M61.0055 64.8769L59.1541 67.2375L58.3673 66.6204L60.2186 64.2598L61.0055 64.8769Z" fill="#EECBAD"/>
<path d="M61.4528 62.686L60.8357 63.4729L60.0488 62.8558L60.6659 62.0689L61.4528 62.686Z" fill="#66110D"/>
<path d="M60.0488 62.8558L59.4317 63.6427L58.6448 63.0256L59.2619 62.2387L60.0488 62.8558Z" fill="#66110D"/>
<path d="M59.2619 62.2387L58.6448 63.0256L57.8579 62.4085L58.475 61.6216L59.2619 62.2387Z" fill="#66110D"/>
<path d="M58.475 61.6216L57.8579 62.4085L57.0711 61.7914L57.6882 61.0045L58.475 61.6216Z" fill="#66110D"/>
<path d="M57.6882 61.0045L57.0711 61.7914L56.2842 61.1743L56.9013 60.3874L57.6882 61.0045Z" fill="#66110D"/>
<path d="M56.2842 61.1743L55.6671 61.9611L54.8802 61.344L55.4973 60.5572L56.2842 61.1743Z" fill="#66110D"/>
<path d="M54.8802 61.344L54.2631 62.1309L53.4762 61.5138L54.0933 60.7269L54.8802 61.344Z" fill="#66110D"/>
<path d="M53.4762 61.5138L52.8591 62.3007L52.0722 61.6836L52.6893 60.8967L53.4762 61.5138Z" fill="#66110D"/>
<path d="M52.8591 62.3007L52.242 63.0876L51.4551 62.4705L52.0722 61.6836L52.8591 62.3007Z" fill="#66110D"/>
<path d="M51.4551 62.4705L50.838 63.2574L50.0511 62.6402L50.6682 61.8534L51.4551 62.4705Z" fill="#66110D"/>
<path d="M50.6682 61.8534L50.0511 62.6402L49.2642 62.0231L49.8814 61.2363L50.6682 61.8534Z" fill="#66110D"/>
<path d="M49.8814 61.2363L49.2642 62.0231L48.4774 61.406L49.0945 60.6192L49.8814 61.2363Z" fill="#66110D"/>
<path d="M49.0945 60.6192L48.4774 61.406L47.6905 60.7889L48.3076 60.0021L49.0945 60.6192Z" fill="#66110D"/>
<path d="M47.6905 60.7889L47.0734 61.5758L46.2865 60.9587L46.9036 60.1718L47.6905 60.7889Z" fill="#66110D"/>
<path d="M46.2865 60.9587L45.6694 61.7456L44.8825 61.1285L45.4996 60.3416L46.2865 60.9587Z" fill="#66110D"/>
<path d="M44.8825 61.1285L44.2654 61.9154L43.4785 61.2983L44.0956 60.5114L44.8825 61.1285Z" fill="#66110D"/>
<path d="M44.2654 61.9154L43.6483 62.7022L42.8614 62.0851L43.4785 61.2983L44.2654 61.9154Z" fill="#66110D"/>
<path d="M42.8614 62.0851L42.2443 62.872L41.4574 62.2549L42.0745 61.468L42.8614 62.0851Z" fill="#66110D"/>
<path d="M42.0745 61.468L41.4574 62.2549L40.6706 61.6378L41.2877 60.8509L42.0745 61.468Z" fill="#66110D"/>
<path d="M40.6706 61.6378L40.0534 62.4247L39.2666 61.8076L39.8837 61.0207L40.6706 61.6378Z" fill="#66110D"/>
<path d="M39.8837 61.0207L39.2666 61.8076L38.4797 61.1905L39.0968 60.4036L39.8837 61.0207Z" fill="#66110D"/>
<path d="M38.4797 61.1905L37.8626 61.9774L37.0757 61.3603L37.6928 60.5734L38.4797 61.1905Z" fill="#66110D"/>
<path d="M37.6928 60.5734L37.0757 61.3603L36.2888 60.7431L36.9059 59.9563L37.6928 60.5734Z" fill="#66110D"/>
<path d="M36.2888 60.7431L35.6717 61.53L34.8848 60.9129L35.5019 60.126L36.2888 60.7431Z" fill="#66110D"/>
<path d="M35.6717 61.53L35.0546 62.3169L34.2677 61.6998L34.8848 60.9129L35.6717 61.53Z" fill="#66110D"/>
<path d="M35.8415 62.934L35.2244 63.7209L34.4375 63.1038L35.0546 62.3169L35.8415 62.934Z" fill="#66110D"/>
<path d="M36.0113 64.338L35.3942 65.1249L34.6073 64.5078L35.2244 63.7209L36.0113 64.338Z" fill="#66110D"/>
<path d="M35.3942 65.1249L34.7771 65.9118L33.9902 65.2947L34.6073 64.5078L35.3942 65.1249Z" fill="#66110D"/>
<path d="M34.7771 65.9118L34.16 66.6986L33.3731 66.0815L33.9902 65.2947L34.7771 65.9118Z" fill="#66110D"/>
<path d="M33.3731 66.0815L32.756 66.8684L31.9691 66.2513L32.5862 65.4644L33.3731 66.0815Z" fill="#66110D"/>
<path d="M33.5428 67.4855L32.9257 68.2724L32.1389 67.6553L32.756 66.8684L33.5428 67.4855Z" fill="#66110D"/>
<path d="M32.9257 68.2724L32.3086 69.0593L31.5218 68.4422L32.1389 67.6553L32.9257 68.2724Z" fill="#66110D"/>
<path d="M32.3086 69.0593L31.6915 69.8462L30.9047 69.2291L31.5218 68.4422L32.3086 69.0593Z" fill="#66110D"/>
<path d="M33.0955 69.6764L32.4784 70.4633L31.6915 69.8462L32.3086 69.0593L33.0955 69.6764Z" fill="#66110D"/>
<path d="M33.8824 70.2935L33.2653 71.0804L32.4784 70.4633L33.0955 69.6764L33.8824 70.2935Z" fill="#66110D"/>
<path d="M34.4995 69.5066L33.8824 70.2935L33.0955 69.6764L33.7126 68.8895L34.4995 69.5066Z" fill="#66110D"/>
<path d="M35.2864 70.1237L34.6693 70.9106L33.8824 70.2935L34.4995 69.5066L35.2864 70.1237Z" fill="#66110D"/>
<path d="M36.6904 69.9539L36.0733 70.7408L35.2864 70.1237L35.9035 69.3368L36.6904 69.9539Z" fill="#66110D"/>
<path d="M38.0944 69.7842L37.4773 70.5711L36.6904 69.9539L37.3075 69.1671L38.0944 69.7842Z" fill="#66110D"/>
<path d="M38.8812 70.4013L38.2641 71.1882L37.4773 70.5711L38.0944 69.7842L38.8812 70.4013Z" fill="#66110D"/>
<path d="M39.6681 71.0184L39.051 71.8053L38.2641 71.1882L38.8812 70.4013L39.6681 71.0184Z" fill="#66110D"/>
<path d="M41.0721 70.8486L40.455 71.6355L39.6681 71.0184L40.2852 70.2315L41.0721 70.8486Z" fill="#66110D"/>
<path d="M42.4761 70.6788L41.859 71.4657L41.0721 70.8486L41.6892 70.0617L42.4761 70.6788Z" fill="#66110D"/>
<path d="M43.8801 70.5091L43.263 71.2959L42.4761 70.6788L43.0932 69.8919L43.8801 70.5091Z" fill="#66110D"/>
<path d="M44.4972 69.7222L43.8801 70.5091L43.0932 69.8919L43.7103 69.1051L44.4972 69.7222Z" fill="#66110D"/>
<path d="M45.1143 68.9353L44.4972 69.7222L43.7103 69.1051L44.3274 68.3182L45.1143 68.9353Z" fill="#66110D"/>
<path d="M46.5183 68.7655L45.9012 69.5524L45.1143 68.9353L45.7314 68.1484L46.5183 68.7655Z" fill="#66110D"/>
<path d="M47.3052 69.3826L46.688 70.1695L45.9012 69.5524L46.5183 68.7655L47.3052 69.3826Z" fill="#66110D"/>
<path d="M48.7091 69.2128L48.092 69.9997L47.3052 69.3826L47.9223 68.5957L48.7091 69.2128Z" fill="#66110D"/>
<path d="M61.6226 64.09L61.0055 64.8769L60.2186 64.2598L60.8357 63.4729L61.6226 64.09Z" fill="#66110D"/>
<path d="M61.7923 65.494L61.1752 66.2809L60.3884 65.6638L61.0055 64.8769L61.7923 65.494Z" fill="#66110D"/>
<path d="M61.1752 66.2809L60.5581 67.0678L59.7712 66.4507L60.3884 65.6638L61.1752 66.2809Z" fill="#66110D"/>
<path d="M60.5581 67.0678L59.941 67.8546L59.1541 67.2375L59.7712 66.4507L60.5581 67.0678Z" fill="#66110D"/>
<path d="M59.1541 67.2375L58.537 68.0244L57.7502 67.4073L58.3673 66.6204L59.1541 67.2375Z" fill="#66110D"/>
<path d="M58.537 68.0244L57.9199 68.8113L57.1331 68.1942L57.7502 67.4073L58.537 68.0244Z" fill="#66110D"/>
<path d="M57.9199 68.8113L57.3028 69.5982L56.5159 68.9811L57.1331 68.1942L57.9199 68.8113Z" fill="#66110D"/>
<path d="M57.3028 69.5982L56.6857 70.3851L55.8988 69.768L56.5159 68.9811L57.3028 69.5982Z" fill="#66110D"/>
<path d="M56.5159 68.9811L55.8988 69.768L55.112 69.1509L55.7291 68.364L56.5159 68.9811Z" fill="#66110D"/>
<path d="M55.7291 68.364L55.112 69.1509L54.3251 68.5337L54.9422 67.7469L55.7291 68.364Z" fill="#66110D"/>
<path d="M54.3251 68.5337L53.708 69.3206L52.9211 68.7035L53.5382 67.9166L54.3251 68.5337Z" fill="#66110D"/>
<path d="M52.9211 68.7035L52.304 69.4904L51.5171 68.8733L52.1342 68.0864L52.9211 68.7035Z" fill="#66110D"/>
<path d="M51.5171 68.8733L50.9 69.6602L50.1131 69.0431L50.7302 68.2562L51.5171 68.8733Z" fill="#66110D"/>
<path d="M51.5171 68.8733L50.9 69.6602L50.1131 69.0431L50.7302 68.2562L51.5171 68.8733Z" fill="#66110D"/>
<path d="M50.1131 69.0431L49.496 69.83L48.7091 69.2128L49.3262 68.426L50.1131 69.0431Z" fill="#66110D"/>
<path d="M49.496 69.83L48.8789 70.6168L48.092 69.9997L48.7091 69.2128L49.496 69.83Z" fill="#66110D"/>
</svg>
